<?xml version="1.0" encoding="UTF-8"?>
<svg version="1.1" xmlns="http://www.w3.org/2000/svg" width="192" height="192">
<path d="M0 0 C1.44616457 -0.0043519 2.89232684 -0.00953664 4.33848572 -0.01548767 C8.25173285 -0.02883693 12.16488315 -0.02946094 16.0781486 -0.02692437 C19.35093093 -0.02585198 22.62369388 -0.03074482 25.89647204 -0.03552979 C33.62012381 -0.04661069 41.34372694 -0.04707024 49.06738281 -0.04101562 C57.02280012 -0.03497504 64.9780406 -0.04729221 72.93342775 -0.06858569 C79.77611157 -0.08622425 86.61873921 -0.09219954 93.46144491 -0.08894795 C97.54283146 -0.08713869 101.62409183 -0.08973557 105.70545769 -0.10366249 C109.54443695 -0.11627317 113.38314124 -0.11426634 117.22211647 -0.1012516 C118.62652557 -0.09889338 120.03095422 -0.10159337 121.43534088 -0.10987473 C135.3854266 -0.18616937 135.3854266 -0.18616937 141.74633789 3.2746582 C144.62152661 7.07026606 145.12904154 9.88432154 145.16525269 14.59260559 C145.18212631 15.86686905 145.19899994 17.14113251 145.21638489 18.45401001 C145.21999493 19.85882495 145.22329573 21.26364071 145.22631836 22.66845703 C145.24025242 24.15374433 145.2554467 25.63902026 145.27180481 27.12428284 C145.31219516 31.15330239 145.33381894 35.18222087 145.3512435 39.21139741 C145.37181684 43.43312587 145.40681842 47.65473965 145.43948364 51.87638855 C145.4919332 58.96882624 145.53181593 66.06125512 145.56469727 73.15380859 C145.60285281 81.34220872 145.66267239 89.53023889 145.7337712 97.71841413 C145.79429223 104.75631905 145.84286246 111.794234 145.88158143 118.83229274 C145.90470862 123.03223108 145.93194296 127.23203201 145.97002792 131.43186378 C146.00521574 135.38400816 146.0253522 139.33595578 146.03413963 143.28824425 C146.03977238 144.73460757 146.05053721 146.18096192 146.06695366 147.62724304 C146.2243582 162.04331711 146.2243582 162.04331711 142.74633789 168.2746582 C138.48393287 171.70284176 135.62007108 172.77533155 130.18078613 172.78259277 C128.87701523 172.79387207 127.57324432 172.80515137 126.22996521 172.81677246 C124.79726949 172.80899632 123.36457598 172.80080371 121.93188477 172.79223633 C120.41365386 172.79766017 118.89542823 172.8047843 117.37721252 172.81347656 C113.26352803 172.83168192 109.15024568 172.82465408 105.03655434 172.81196022 C100.72719888 172.80181803 96.41787735 172.81122928 92.10852051 172.81750488 C84.87233309 172.82477775 77.63630908 172.8152031 70.40014648 172.79614258 C62.03963547 172.77437446 53.67951467 172.7814261 45.31901312 172.8034482 C38.13495979 172.82161253 30.95102378 172.82415549 23.7669549 172.81369352 C19.47880312 172.80746425 15.19083463 172.80660732 10.9026947 172.81983948 C6.87076023 172.83141247 2.8393278 172.82334623 -1.19255257 172.80026245 C-2.67035654 172.79498303 -4.14820293 172.79647606 -5.62598991 172.80531311 C-7.64668116 172.81628067 -9.66746496 172.80007396 -11.68811035 172.78259277 C-13.3826598 172.78033062 -13.3826598 172.78033062 -15.11144257 172.77802277 C-19.01456333 172.15276643 -21.1779826 170.71710983 -24.25366211 168.2746582 C-26.62183855 164.72239354 -26.51073324 163.20820588 -26.52781677 158.99394226 C-26.5377919 157.67746704 -26.54776703 156.36099182 -26.55804443 155.00462341 C-26.55894026 153.5421449 -26.55960382 152.07966622 -26.56005859 150.6171875 C-26.56767865 149.07969764 -26.57610588 147.54221159 -26.58528137 146.00473022 C-26.60725008 141.82487893 -26.61602859 137.64510079 -26.62110782 133.46519828 C-26.62474897 130.85381751 -26.6309878 128.24245598 -26.63810921 125.63108253 C-26.66261315 116.52081077 -26.67565738 107.410596 -26.67919922 98.30029297 C-26.68283396 89.80860382 -26.71272233 81.31727624 -26.7546038 72.8256976 C-26.78929886 65.53556983 -26.80474753 58.24556191 -26.80544525 50.95535213 C-26.80623842 46.60111784 -26.81499485 42.24725163 -26.84344292 37.89310265 C-26.86960996 33.79634264 -26.87183684 29.70025617 -26.85578728 25.60345078 C-26.85397159 24.10143758 -26.86067447 22.59938578 -26.87660599 21.09745598 C-27.00357166 8.34859974 -27.00357166 8.34859974 -24.15370178 4.45930481 C-16.90393015 -1.00206496 -8.721494 -0.01734568 0 0 Z " fill="#020100" transform="translate(37.253662109375,9.725341796875)"/>
<path d="M0 0 C0.14841624 5.33841781 0.2572453 10.67563342 0.32958984 16.015625 C0.35974788 17.83159299 0.40068198 19.64741549 0.45263672 21.46289062 C0.52550124 24.07458355 0.55946367 26.68435058 0.5859375 29.296875 C0.61690521 30.10743347 0.64787292 30.91799194 0.67977905 31.75311279 C0.68111133 33.98878411 0.61801499 35.85044524 0 38 C-2.83935547 40.38183594 -2.83935547 40.38183594 -6 42 C-7.07231487 42.83935957 -8.12887439 43.69994743 -9.15625 44.59375 C-9.69717285 45.06111572 -10.2380957 45.52848145 -10.79541016 46.01000977 C-11.3579248 46.50170654 -11.92043945 46.99340332 -12.5 47.5 C-13.72651731 48.56125014 -14.95308125 49.6224464 -16.1796875 50.68359375 C-16.80584961 51.22741699 -17.43201172 51.77124023 -18.07714844 52.33154297 C-21.25095813 55.08545555 -24.43744859 57.82451841 -27.625 60.5625 C-28.20443359 61.06265625 -28.78386719 61.5628125 -29.38085938 62.078125 C-32.18467688 64.4889457 -35.00469054 66.83022705 -38 69 C-36.65302548 72.07216356 -35.25219756 73.91518363 -32.6875 76.0625 C-31.62015625 76.96548828 -31.62015625 76.96548828 -30.53125 77.88671875 C-29.6959375 78.58410156 -28.860625 79.28148438 -28 80 C-26.44944674 81.32076767 -24.89890606 82.64155016 -23.34863281 83.96264648 C-13.16790333 93.38281355 -13.16790333 93.38281355 -1.87817383 101.0793457 C0.6068831 103.62060956 0.45455612 105.68456439 0.45318604 109.1335907 C0.43254089 109.94931046 0.41189575 110.76503021 0.390625 111.60546875 C0.38496521 112.44467361 0.37930542 113.28387848 0.37347412 114.14851379 C0.35108406 116.82875633 0.30088453 119.50766163 0.25 122.1875 C0.22993832 124.00453798 0.21168697 125.82159692 0.1953125 127.63867188 C0.15121086 132.09296312 0.08216659 136.54625485 0 141 C-2.87758545 139.60686556 -5.11541506 138.20130535 -7.5 136.0625 C-8.19609375 135.43988281 -8.8921875 134.81726563 -9.609375 134.17578125 C-21.62436046 123.24057389 -21.62436046 123.24057389 -26.98046875 118.19921875 C-33.10707063 112.46285917 -39.41507668 107.25218645 -46.1875 102.2890625 C-48.92402384 100.06183616 -50.84728909 97.77439898 -53 95 C-54.485 94.01 -54.485 94.01 -56 93 C-59.12458167 90.91694555 -60.68616432 88.92632159 -63 86 C-64.87597539 84.24851725 -66.81107048 82.58184841 -68.76171875 80.9140625 C-71.20226606 78.82703251 -73.60284341 76.69917815 -76 74.5625 C-76.763125 73.88316406 -77.52625 73.20382813 -78.3125 72.50390625 C-78.869375 72.00761719 -79.42625 71.51132813 -80 71 C-79.73834027 67.77784734 -78.86607482 66.87188863 -76.48046875 64.58984375 C-75.3897161 63.69722597 -74.29154612 62.81362214 -73.1875 61.9375 C-71.99426085 60.96187285 -70.80289662 59.98394874 -69.61328125 59.00390625 C-69.00822754 58.50648926 -68.40317383 58.00907227 -67.77978516 57.49658203 C-65.06174322 55.2110406 -62.46885309 52.7994097 -59.875 50.375 C-55.36569217 46.18074012 -50.68689362 42.26573104 -45.8828125 38.4140625 C-41.85172386 35.03843543 -38.03343905 31.44669808 -34.23852539 27.80883789 C-30.21150834 24 -30.21150834 24 -28 24 C-28 23.34 -28 22.68 -28 22 C-26.46804728 20.62787699 -24.87078919 19.3284554 -23.25 18.0625 C-18.29398318 14.10795808 -13.59770697 9.96746737 -8.97363281 5.63110352 C-2.93906732 0 -2.93906732 0 0 0 Z " fill="#F7B500" transform="translate(139,26)"/>
<path d="M0 0 C0.82628906 -0.00064453 1.65257813 -0.00128906 2.50390625 -0.00195312 C3.35855469 0.01802734 4.21320313 0.03800781 5.09375 0.05859375 C5.94839844 0.05150391 6.80304688 0.04441406 7.68359375 0.03710938 C11.07070753 0.07145608 13.67485778 0.11508966 16.8359375 1.42578125 C19.75146365 4.85962317 19.16365908 8.69772782 19.125 13.0546875 C19.1288269 13.99538589 19.13265381 14.93608429 19.13659668 15.9052887 C19.13931888 17.8949592 19.13193618 19.88466531 19.11523438 21.87426758 C19.09385287 24.91894494 19.1150132 27.96125616 19.140625 31.00585938 C19.13798131 32.93880729 19.13285548 34.87175374 19.125 36.8046875 C19.13309692 37.7152037 19.14119385 38.62571991 19.14953613 39.56382751 C19.0560519 45.87270631 19.0560519 45.87270631 16.68164062 49.07446289 C14.59375 50.49609375 14.59375 50.49609375 12.65625 50.93359375 C8.62534562 52.03293131 6.07196207 55.9342599 3.44921875 59.015625 C2.67191406 59.91667969 1.89460938 60.81773438 1.09375 61.74609375 C-0.00453125 63.05320312 -0.00453125 63.05320312 -1.125 64.38671875 C-3.6787827 66.74809316 -5.0561791 66.97290538 -8.40625 67.49609375 C-8.49895775 59.35105553 -8.57001823 51.20623798 -8.61349869 43.06080246 C-8.63436795 39.2784638 -8.66267248 35.49648628 -8.70800781 31.71435547 C-8.75149074 28.06389063 -8.77539209 24.41377299 -8.78575897 20.76306915 C-8.7931461 19.37077621 -8.80757175 17.97850213 -8.82917023 16.58635712 C-8.85823041 14.63555964 -8.85988412 12.68441229 -8.86035156 10.73339844 C-8.86923401 9.62309265 -8.87811646 8.51278687 -8.88726807 7.36883545 C-8.03376453 2.27153167 -5.05154774 -0.0124877 0 0 Z " fill="#FAB701" transform="translate(62.40625,24.50390625)"/>
<path d="M0 0 C3.70197745 1.85098872 5.30702409 3.14221058 8.0625 6.0625 C13.83937594 11.98307932 20.11032591 17.40688394 27 22 C27.34057617 24.15478516 27.34057617 24.15478516 27.29296875 26.7890625 C27.28172974 28.06064209 27.28172974 28.06064209 27.27026367 29.35791016 C27.24295166 30.4360498 27.21563965 31.51418945 27.1875 32.625 C27.125625 36.04875 27.06375 39.4725 27 43 C18.09 43 9.18 43 0 43 C0 28.81 0 14.62 0 0 Z " fill="#EFAF00" transform="translate(54,99)"/>
<path d="M0 0 C0.82628906 -0.00064453 1.65257813 -0.00128906 2.50390625 -0.00195312 C3.35855469 0.01802734 4.21320313 0.03800781 5.09375 0.05859375 C5.94839844 0.05150391 6.80304688 0.04441406 7.68359375 0.03710938 C11.07070753 0.07145608 13.67485778 0.11508966 16.8359375 1.42578125 C19.75146365 4.85962317 19.16365908 8.69772782 19.125 13.0546875 C19.1288269 13.99538589 19.13265381 14.93608429 19.13659668 15.9052887 C19.13931888 17.8949592 19.13193618 19.88466531 19.11523438 21.87426758 C19.09385287 24.91894494 19.1150132 27.96125616 19.140625 31.00585938 C19.13798131 32.93880729 19.13285548 34.87175374 19.125 36.8046875 C19.13309692 37.7152037 19.14119385 38.62571991 19.14953613 39.56382751 C19.05558501 45.90421514 19.05558501 45.90421514 16.56054688 49.10180664 C15.91150391 49.56192139 15.26246094 50.02203613 14.59375 50.49609375 C13.93375 50.16609375 13.27375 49.83609375 12.59375 49.49609375 C13.24118164 48.95694336 13.88861328 48.41779297 14.55566406 47.86230469 C17.08264437 44.92848902 17.12505006 43.46239057 17.203125 39.63671875 C17.23374023 38.63157227 17.26435547 37.62642578 17.29589844 36.59082031 C17.31168945 35.32206055 17.32748047 34.05330078 17.34375 32.74609375 C17.42625 28.70359375 17.50875 24.66109375 17.59375 20.49609375 C9.34375 20.49609375 1.09375 20.49609375 -7.40625 20.49609375 C-7.40625 35.67609375 -7.40625 50.85609375 -7.40625 66.49609375 C-4.76625 64.18609375 -2.12625 61.87609375 0.59375 59.49609375 C1.58375 59.49609375 2.57375 59.49609375 3.59375 59.49609375 C2.35659282 60.84135205 1.10350423 62.17197251 -0.15625 63.49609375 C-1.20039062 64.60984375 -1.20039062 64.60984375 -2.265625 65.74609375 C-4.40625 67.49609375 -4.40625 67.49609375 -8.40625 67.49609375 C-8.49895775 59.35105553 -8.57001823 51.20623798 -8.61349869 43.06080246 C-8.63436795 39.2784638 -8.66267248 35.49648628 -8.70800781 31.71435547 C-8.75149074 28.06389063 -8.77539209 24.41377299 -8.78575897 20.76306915 C-8.7931461 19.37077621 -8.80757175 17.97850213 -8.82917023 16.58635712 C-8.85823041 14.63555964 -8.85988412 12.68441229 -8.86035156 10.73339844 C-8.86923401 9.62309265 -8.87811646 8.51278687 -8.88726807 7.36883545 C-8.03376453 2.27153167 -5.05154774 -0.0124877 0 0 Z " fill="#926B00" transform="translate(62.40625,24.50390625)"/>
<path d="M0 0 C1.24060684 -0.00571014 2.48121368 -0.01142029 3.75941467 -0.01730347 C5.12644948 -0.01854866 6.49348441 -0.01967379 7.86051941 -0.02069092 C9.30638759 -0.02532245 10.75225456 -0.03034756 12.19812012 -0.03573608 C16.11972327 -0.04882898 20.04130933 -0.05529884 23.96293092 -0.05974674 C26.41519731 -0.06268222 28.86745907 -0.0667879 31.31972313 -0.07125092 C38.9987895 -0.08491704 46.67784524 -0.09458828 54.35692292 -0.09845281 C63.20944933 -0.10293291 72.06182129 -0.12048224 80.91430074 -0.1494534 C87.7654285 -0.17109365 94.61651287 -0.18115832 101.46767443 -0.18249393 C105.55580923 -0.18354018 109.64379866 -0.18940985 113.73189735 -0.20731354 C117.5790419 -0.22383508 121.42593244 -0.22593007 125.2730999 -0.21717453 C126.68073839 -0.21640636 128.08839078 -0.22071775 129.49599457 -0.23063278 C143.47503595 -0.32328334 143.47503595 -0.32328334 149.83390808 3.14044189 C152.70892572 6.93621025 153.21661118 9.75003352 153.25282288 14.45838928 C153.2696965 15.73265274 153.28657013 17.0069162 153.30395508 18.3197937 C153.30756512 19.72460864 153.31086592 21.1294244 153.31388855 22.53424072 C153.32782261 24.01952802 153.34301689 25.50480395 153.359375 26.99006653 C153.39976535 31.01908608 153.42138913 35.04800456 153.43881369 39.0771811 C153.45938703 43.29890956 153.49438861 47.52052335 153.52705383 51.74217224 C153.57950339 58.83460993 153.61938612 65.92703881 153.65226746 73.01959229 C153.690423 81.20799241 153.75024258 89.39602258 153.8213414 97.58419782 C153.88186242 104.62210275 153.93043265 111.6600177 153.96915162 118.69807643 C153.99227881 122.89801477 154.01951315 127.09781571 154.05759811 131.29764748 C154.09278593 135.24979185 154.11292239 139.20173947 154.12170982 143.15402794 C154.12734257 144.60039126 154.1381074 146.04674561 154.15452385 147.49302673 C154.30669991 161.4302443 154.30669991 161.4302443 150.83390808 168.14044189 C145.93390808 172.14044189 145.93390808 172.14044189 142.83390808 172.14044189 C142.83390808 171.15044189 142.83390808 170.16044189 142.83390808 169.14044189 C143.59703308 168.91356689 144.36015808 168.68669189 145.14640808 168.45294189 C148.50811257 166.81117923 149.22262317 165.48626655 150.83390808 162.14044189 C151.27877569 159.10599876 151.27877569 159.10599876 151.20812988 155.795578 C151.2151442 154.51553391 151.22215851 153.23548981 151.22938538 151.91665649 C151.22195834 150.50549159 151.21422722 149.09432825 151.20622253 147.6831665 C151.2086515 146.19139858 151.21237185 144.69963229 151.21728516 143.20787048 C151.22668261 139.16248534 151.21727886 135.11734262 151.20395303 131.07197642 C151.19262967 126.83776362 151.19674667 122.60356259 151.19869995 118.36933899 C151.19958255 111.26004072 151.18850888 104.15083787 151.17008972 97.04156494 C151.14891448 88.82143411 151.14541415 80.60144296 151.15165168 72.38129038 C151.15734526 64.47314925 151.15170027 56.56505733 151.14047813 48.65692329 C151.1358329 45.2913783 151.13495796 41.92586341 151.13706398 38.56031609 C151.13894693 34.59829419 151.1308425 30.63641458 151.11500359 26.67442513 C151.11075955 25.21996779 151.10991099 23.76549602 151.11269379 22.31103516 C151.1159144 20.32679094 151.10561101 18.34253845 151.09460449 16.35832214 C151.09255162 15.24760314 151.09049875 14.13688414 151.08838367 12.99250698 C150.83048662 10.10209543 150.50730924 8.49567349 148.83390808 6.14044189 C145.5531349 3.80562827 142.50851328 3.88574941 138.56460571 3.87542725 C137.27607697 3.86715408 135.98754822 3.85888092 134.65997314 3.85035706 C133.23414601 3.85118161 131.80831897 3.85217924 130.38249207 3.85333252 C128.87939585 3.84730768 127.376303 3.84038327 125.87321472 3.83262634 C122.63803557 3.81774145 119.4029181 3.80898923 116.16770744 3.80491638 C111.05434874 3.79820474 105.94112221 3.77645365 100.82781982 3.75238037 C89.05212531 3.69924303 77.27639009 3.66585714 65.50062561 3.63262177 C54.70555173 3.60195496 43.91053454 3.56715243 33.11553437 3.51631117 C28.03004242 3.492932 22.94464254 3.4792141 17.85910213 3.47281647 C14.69918983 3.46688894 11.53935248 3.45280259 8.37947845 3.43647194 C6.91170535 3.43058337 5.44391397 3.42812632 3.97612953 3.42931175 C1.97614648 3.43046677 -0.02383121 3.41832559 -2.02377319 3.40545654 C-3.14408715 3.40252342 -4.26440111 3.3995903 -5.41866398 3.3965683 C-8.16609192 3.14044189 -8.16609192 3.14044189 -11.16609192 1.14044189 C-7.38428951 0.26193576 -3.87893347 0.01071951 0 0 Z " fill="#1F1F1F" transform="translate(29.166091918945313,9.85955810546875)"/>
<path d="M0 0 C0.66 0.33 1.32 0.66 2 1 C1.2884375 1.61875 1.2884375 1.61875 0.5625 2.25 C-2.57159439 5.76018572 -2.12386383 9.92248395 -2.12025452 14.44134521 C-2.12110894 15.08588063 -2.12196337 15.73041605 -2.12284368 16.39448285 C-2.12448932 18.55175392 -2.11899214 20.70894704 -2.11352539 22.86621094 C-2.1132433 24.41357929 -2.11340169 25.96094777 -2.1139679 27.50831604 C-2.114255 31.70837016 -2.10837231 35.90839577 -2.10139394 40.10844326 C-2.09514593 44.49801425 -2.09455545 48.88758589 -2.09336853 53.27716064 C-2.09025949 61.58916127 -2.08205185 69.90114875 -2.07201904 78.21314359 C-2.06084466 87.67617421 -2.05534411 97.13920546 -2.05032361 106.60224104 C-2.03986889 126.06816814 -2.0222777 145.53408302 -2 165 C-2.66 165 -3.32 165 -4 165 C-5.38931404 162.22137191 -5.13880413 159.94997213 -5.15390015 156.83953857 C-5.16250061 155.52443802 -5.17110107 154.20933746 -5.17996216 152.85438538 C-5.18439756 151.38827554 -5.1886959 149.92216529 -5.19287109 148.45605469 C-5.20077097 146.91871454 -5.20903984 145.38137625 -5.21765137 143.84403992 C-5.24388614 138.78666966 -5.25918106 133.72929107 -5.2734375 128.671875 C-5.2787967 126.9316838 -5.28417421 125.19149266 -5.28956985 123.45130157 C-5.31120126 116.21282036 -5.32993811 108.97434139 -5.34119225 101.73583603 C-5.35743188 91.35851482 -5.39060681 80.98156804 -5.44759309 70.604388 C-5.48628542 63.31004667 -5.50582412 56.01580552 -5.51111281 48.72136426 C-5.51476745 44.36374267 -5.52680006 40.00652028 -5.55921555 35.6490097 C-5.58928375 31.54818369 -5.59561277 27.44799867 -5.58383179 23.34708595 C-5.58361094 21.84345168 -5.59192545 20.33978778 -5.60948563 18.83625603 C-5.75062182 6.05426213 -5.75062182 6.05426213 -2.46353149 2.05865479 C-1.2440834 1.03962067 -1.2440834 1.03962067 0 0 Z " fill="#1C1C1C" transform="translate(16,12)"/>
<path d="M0 0 C0.86753906 -0.01611328 1.73507813 -0.03222656 2.62890625 -0.04882812 C3.46292969 -0.04947266 4.29695313 -0.05011719 5.15625 -0.05078125 C5.91744141 -0.05376221 6.67863281 -0.05674316 7.46289062 -0.05981445 C9.5 0.3125 9.5 0.3125 12.5 3.3125 C12.5 6.2825 12.5 9.2525 12.5 12.3125 C4.25 12.3125 -4 12.3125 -12.5 12.3125 C-12.5 9.0125 -12.5 5.7125 -12.5 2.3125 C-8.32856144 -0.46845904 -4.90037332 -0.01820347 0 0 Z " fill="#F5B300" transform="translate(67.5,24.6875)"/>
<path d="M0 0 C7.92 0 15.84 0 24 0 C23.1787742 3.2849032 22.68794779 4.78453012 20.93359375 7.453125 C20.53076172 8.071875 20.12792969 8.690625 19.71289062 9.328125 C19.29201172 9.96234375 18.87113281 10.5965625 18.4375 11.25 C18.01275391 11.8996875 17.58800781 12.549375 17.15039062 13.21875 C16.1052694 14.81578918 15.05330163 16.4083442 14 18 C12.35 17.67 10.7 17.34 9 17 C8.896875 16.360625 8.79375 15.72125 8.6875 15.0625 C8.460625 14.381875 8.23375 13.70125 8 13 C7.01 12.67 6.02 12.34 5 12 C4.05078125 9.93359375 4.05078125 9.93359375 3.3125 7.4375 C3.06113281 6.61121094 2.80976562 5.78492188 2.55078125 4.93359375 C2.36902344 4.29550781 2.18726563 3.65742188 2 3 C1.34 3 0.68 3 0 3 C0 2.01 0 1.02 0 0 Z " fill="#F0B000" transform="translate(55,146)"/>
<path d="M0 0 C0.33 0 0.66 0 1 0 C1.09889038 6.05056995 1.17147918 12.10066935 1.21972656 18.15185547 C1.23983969 20.21020705 1.26713397 22.26850152 1.30175781 24.32666016 C1.35028883 27.28562513 1.37297166 30.24383461 1.390625 33.203125 C1.41127014 34.12305237 1.43191528 35.04297974 1.45318604 35.99078369 C1.45544041 42.41229952 1.45544041 42.41229952 -1.02441406 45.61230469 C-1.67635742 46.07024414 -2.32830078 46.52818359 -3 47 C-3.66 46.67 -4.32 46.34 -5 46 C-4.35256836 45.48791992 -3.70513672 44.97583984 -3.03808594 44.44824219 C-0.30101948 41.16035259 -0.46017535 39.07069639 -0.390625 34.828125 C-0.37408875 34.1457074 -0.35755249 33.46328979 -0.34051514 32.76019287 C-0.29210161 30.59003646 -0.27068135 28.42058028 -0.25 26.25 C-0.22183438 24.77470448 -0.19190611 23.29944149 -0.16015625 21.82421875 C-0.08634775 18.21629802 -0.03673106 14.60851028 0 11 C-0.66 11 -1.32 11 -2 11 C-2 12.65 -2 14.3 -2 16 C-2.99 15.67 -3.98 15.34 -5 15 C-5 13.68 -5 12.36 -5 11 C-5.66 11 -6.32 11 -7 11 C-7 12.65 -7 14.3 -7 16 C-7.66 16 -8.32 16 -9 16 C-9 14.35 -9 12.7 -9 11 C-9.99 11 -10.98 11 -12 11 C-12 12.65 -12 14.3 -12 16 C-12.66 16 -13.32 16 -14 16 C-14 13.69 -14 11.38 -14 9 C-9.38 9 -4.76 9 0 9 C0 6.03 0 3.06 0 0 Z " fill="#7E5C00" transform="translate(80,28)"/>
<path d="M0 0 C2.31 0 4.62 0 7 0 C7 2.31 7 4.62 7 7 C7.66 7 8.32 7 9 7 C9 5.35 9 3.7 9 2 C9.99 2 10.98 2 12 2 C12 3.65 12 5.3 12 7 C12.66 7 13.32 7 14 7 C14 5.35 14 3.7 14 2 C14.66 2 15.32 2 16 2 C16.12375 2.639375 16.2475 3.27875 16.375 3.9375 C16.58125 4.618125 16.7875 5.29875 17 6 C17.66 6.33 18.32 6.66 19 7 C19 5.35 19 3.7 19 2 C19.66 2 20.32 2 21 2 C21 3.98 21 5.96 21 8 C13.41 8 5.82 8 -2 8 C-1.34 7.67 -0.68 7.34 0 7 C0 4.69 0 2.38 0 0 Z " fill="#926B00" transform="translate(59,37)"/>
<path d="M0 0 C1.32 0.66 2.64 1.32 4 2 C4 14.54 4 27.08 4 40 C-0.03744506 37.98127747 -2.62010675 35.91899872 -6 33 C-3 33 -3 33 2 36 C2 24.78 2 13.56 2 2 C1.34 2 0.68 2 0 2 C0 1.34 0 0.68 0 0 Z " fill="#BC8900" transform="translate(135,127)"/>
<path d="M0 0 C0 12.54 0 25.08 0 38 C-0.66 38 -1.32 38 -2 38 C-2 26.45 -2 14.9 -2 3 C-4.31 4.98 -6.62 6.96 -9 9 C-9.66 8.67 -10.32 8.34 -11 8 C-9.54712339 6.66072279 -8.08752741 5.32873153 -6.625 4 C-5.81289062 3.2575 -5.00078125 2.515 -4.1640625 1.75 C-2 0 -2 0 0 0 Z " fill="#BB8800" transform="translate(139,26)"/>
<path d="M0 0 C1.32 0.33 2.64 0.66 4 1 C3.505 1.433125 3.01 1.86625 2.5 2.3125 C0.66781808 3.99740483 0.66781808 3.99740483 1 7 C-0.96875 9.04296875 -0.96875 9.04296875 -3.5 11.1875 C-4.3353125 11.90292969 -5.170625 12.61835937 -6.03125 13.35546875 C-6.6809375 13.89816406 -7.330625 14.44085938 -8 15 C-8.33 14.01 -8.66 13.02 -9 12 C-8.505 11.566875 -8.01 11.13375 -7.5 10.6875 C-5.66781808 9.00259517 -5.66781808 9.00259517 -6 6 C-4.625 4.3125 -4.625 4.3125 -3 3 C-2.34 3 -1.68 3 -1 3 C-0.67 2.01 -0.34 1.02 0 0 Z " fill="#281D00" transform="translate(73,75)"/>
<path d="M0 0 C2.31 0 4.62 0 7 0 C7 1.98 7 3.96 7 6 C6.34 6 5.68 6 5 6 C5 4.35 5 2.7 5 1 C4.34 1 3.68 1 3 1 C3 2.98 3 4.96 3 7 C1.35 7.33 -0.3 7.66 -2 8 C-1.34 7.67 -0.68 7.34 0 7 C0 4.69 0 2.38 0 0 Z " fill="#AE7F00" transform="translate(59,37)"/>
<path d="M0 0 C0.66 0.33 1.32 0.66 2 1 C1.48308594 1.53109375 0.96617188 2.0621875 0.43359375 2.609375 C-0.22511719 3.31578125 -0.88382812 4.0221875 -1.5625 4.75 C-2.22378906 5.44609375 -2.88507813 6.1421875 -3.56640625 6.859375 C-5.2653956 8.89019298 -5.2653956 8.89019298 -4.71484375 11.265625 C-4.47894531 11.83796875 -4.24304687 12.4103125 -4 13 C-5.32 12.01 -6.64 11.02 -8 10 C-7.44449305 6.40094092 -6.25112752 5.00090201 -3.4375 2.75 C-2.79683594 2.22921875 -2.15617187 1.7084375 -1.49609375 1.171875 C-1.00238281 0.78515625 -0.50867188 0.3984375 0 0 Z " fill="#B38300" transform="translate(67,87)"/>
<path d="M0 0 C0.66 0 1.32 0 2 0 C2.12375 0.639375 2.2475 1.27875 2.375 1.9375 C2.684375 2.9584375 2.684375 2.9584375 3 4 C3.66 4.33 4.32 4.66 5 5 C5 3.35 5 1.7 5 0 C5.66 0 6.32 0 7 0 C7 1.98 7 3.96 7 6 C3.37 6 -0.26 6 -4 6 C-2.68 5.67 -1.36 5.34 0 5 C0 3.35 0 1.7 0 0 Z " fill="#B48400" transform="translate(73,39)"/>
<path d="M0 0 C0.33 1.32 0.66 2.64 1 4 C0.01 4.33 -0.98 4.66 -2 5 C-2.33 6.65 -2.66 8.3 -3 10 C-3.66 10 -4.32 10 -5 10 C-5 10.66 -5 11.32 -5 12 C-5.99 12 -6.98 12 -8 12 C-8 11.01 -8 10.02 -8 9 C-7.01 8.67 -6.02 8.34 -5 8 C-3.55129381 6.14195683 -3.55129381 6.14195683 -2.3125 3.9375 C-1.87550781 3.20402344 -1.43851562 2.47054687 -0.98828125 1.71484375 C-0.66214844 1.14894531 -0.33601563 0.58304688 0 0 Z " fill="#725300" transform="translate(74,155)"/>
</svg>
